# xmcd CD database file
#
# Track frame offsets:
#	150
#	39920
#	70353
#	92097
#	124857
#	145403
#	166125
#	197298
#	226964
#	253659
#	272059
#	286611
#	311311
#
# Disc length: 4388 seconds
#
# Revision: 0
# Processed by: cddbd v1.4PL0 Copyright (c) Steve Scherf et al.
# Submitted via: CDex 1.50Beta7
#
DISCID=ac11220d
DTITLE=Various Artist - Jazz - SwingJournal THE Blue NOTE [CD3]
DYEAR=1900
DGENRE=Jazz
TTITLE0=DAT Dere (Timmons)
TTITLE1=SI-JOYA(Jordan)
TTITLE2=Amen (Byrd)
TTITLE3=WAHOO(Pearson)
TTITLE4=US THREE(Parlan)
TTITLE5=THE PREACHER(Silver)
TTITLE6=Cool BLUES(Parker)
TTITLE7=Swingin'at Sugar RAY'S(Willette)
TTITLE8=Satin DOLL(Ellington)
TTITLE9=Sunday MORNIN'(Green)
TTITLE10=LOIE(Burrell)
TTITLE11=Chittlins CON CORINE(Burrell)
TTITLE12=GOD Bless THE CHILD(Herzog-Holliday)
EXTD=
EXTT0=
EXTT1=
EXTT2=
EXTT3=
EXTT4=
EXTT5=
EXTT6=
EXTT7=
EXTT8=
EXTT9=
EXTT10=
EXTT11=
EXTT12=
PLAYORDER=
